<svg width="41" height="40" viewBox="0 0 41 40" fill="none" xmlns="http://www.w3.org/2000/svg">
<path d="M39.9028 37.3868L38.2052 31.3966C37.8706 30.2162 37.9314 28.9536 38.4121 27.8249C39.5256 25.2116 40.0975 22.3154 39.988 19.2731C39.6108 8.71024 30.9281 0.191838 20.3622 0.00321611C9.02968 -0.197575 -0.197575 9.02968 0.00321611 20.3622C0.191838 30.9281 8.71024 39.6108 19.27 39.988C21.929 40.0823 24.4754 39.6564 26.821 38.8046C28.6889 38.1261 30.7182 38.0105 32.6287 38.5551L37.3808 39.9059C38.9171 40.3439 40.3379 38.9232 39.9028 37.3868ZM11.065 20.0002C11.065 15.0656 15.0656 11.065 20.0002 11.065C24.9348 11.065 28.9354 15.0656 28.9354 20.0002C28.9354 24.9348 24.9348 28.9354 20.0002 28.9354C15.0656 28.9354 11.065 24.9348 11.065 20.0002Z" fill="url(#paint0_linear)"/>
<path d="M37.8922 29.0208C37.8922 29.0208 37.8222 28.7987 37.6853 28.4032C36.6205 25.3853 31.4425 12.3186 21.2052 11.1504C25.5709 11.7376 28.9357 15.4765 28.9357 20.0004C28.9357 24.935 24.9351 28.9356 20.0005 28.9356V39.9974C22.3948 39.9974 24.6917 39.5806 26.8213 38.8078C28.6893 38.1294 30.7185 38.0138 32.629 38.5584L37.3811 39.9091C38.9174 40.3442 40.3382 38.9265 39.9031 37.3871L38.2055 31.3968C38.0048 30.694 37.95 29.9578 38.0382 29.2429L37.8922 29.0208Z" fill="url(#paint1_linear)"/>
<defs>
<linearGradient id="paint0_linear" x1="4.85223" y1="1.35995e-05" x2="40.3757" y2="2.97043" gradientUnits="userSpaceOnUse">
<stop stop-color="#DF5950"/>
<stop offset="1" stop-color="#451046"/>
</linearGradient>
<linearGradient id="paint1_linear" x1="22.4244" y1="11.1504" x2="40.2341" y2="12.182" gradientUnits="userSpaceOnUse">
<stop stop-color="#DF5950"/>
<stop offset="1" stop-color="#451046"/>
</linearGradient>
</defs>
</svg>
